<svg width="50" height="50" viewBox="0 0 50 50" fill="none" xmlns="http://www.w3.org/2000/svg">
<circle cx="25" cy="25" r="25" fill="white"/>
<path d="M23.6875 32.8126C23.075 32.3526 22.1875 32.7876 22.1875 33.5626V34.4201C21.42 34.3776 20.67 34.3214 19.9588 34.2426C13.865 33.6151 11.875 32.1301 11.875 31.6876C11.875 31.5526 12.2863 30.9163 14.285 30.2513C14.7 30.1551 15.0063 29.7826 15.0063 29.3376C15.0063 28.7213 14.3588 28.2563 13.7713 28.4463C11.2688 29.2651 10 30.3551 10 31.6876C10 34.7701 16.83 35.8051 19.76 36.1076C20.535 36.1926 21.3488 36.2551 22.1875 36.3001V37.3126C22.1875 38.0876 23.075 38.5214 23.6875 38.0626L26.1875 36.1876C26.685 35.8139 26.6875 35.0626 26.1875 34.6876L23.6875 32.8126Z" fill="#319F1C"/>
<path d="M36.2226 28.4461C35.7276 28.2849 35.2013 28.5549 35.0401 29.0474C34.8801 29.5399 35.1488 30.0686 35.6413 30.2299C37.6688 30.8899 38.1251 31.5199 38.1251 31.6886C38.1251 32.2424 35.5538 33.7861 29.19 34.3174C28.6738 34.3611 28.2913 34.8136 28.3338 35.3299C28.375 35.8236 28.7975 36.2236 29.3463 36.1861C32.5488 35.9161 40.0001 34.9424 40.0001 31.6874C40.0001 30.3536 38.7288 29.2624 36.2226 28.4461Z" fill="#319F1C"/>
<path d="M25 12L33.75 15.75L25 19.5L16.25 15.75L25 12Z" fill="#319F1C"/>
<path d="M26.25 21.6835V28.9635L33.75 25.7497V18.4697L26.25 21.6835Z" fill="#319F1C"/>
<path d="M23.75 21.6835L16.25 18.4697V25.7497L23.75 28.9635V21.6835Z" fill="#319F1C"/>
</svg>
