<svg width="25" height="24" viewBox="0 0 25 24" fill="none" xmlns="http://www.w3.org/2000/svg">
<path fill-rule="evenodd" clip-rule="evenodd" d="M12.1495 16.0007C10.0639 16.0007 8.36768 14.3077 8.36768 12.2273C8.36768 10.146 10.0636 8.45361 12.1495 8.45361C14.2339 8.45361 15.9302 10.146 15.9302 12.2273C15.9302 14.3077 14.2339 16.0007 12.1495 16.0007Z" fill="white"/>
<path fill-rule="evenodd" clip-rule="evenodd" d="M24.0602 7.33086C24.0602 3.36243 20.8363 0.14604 16.8594 0.14604L7.35753 0.145752C3.38058 0.145752 0.157227 3.36243 0.157227 7.33086L0.157516 16.8147C0.157516 20.7829 3.38058 23.9999 7.35753 23.9999H16.8594C20.8366 23.9999 24.06 20.7829 24.06 16.8147L24.0602 7.33086ZM18.3969 4.53793C17.6202 4.53793 16.9915 5.16563 16.9915 5.94017C16.9915 6.7147 17.6199 7.3424 18.3969 7.3424C19.173 7.34211 19.8009 6.7147 19.8009 5.94017C19.8012 5.16563 19.173 4.53793 18.3969 4.53793ZM12.1493 6.33565C8.89391 6.33565 6.24579 8.97829 6.24579 12.2273C6.24608 15.4748 8.89391 18.1178 12.1493 18.1178C15.4042 18.1175 18.0515 15.4748 18.0515 12.2273C18.0515 8.97829 15.4042 6.33594 12.1493 6.33565Z" fill="white"/>
</svg>
