<svg width="30" height="30" viewBox="0 0 30 30" fill="none" xmlns="http://www.w3.org/2000/svg">
<g clip-path="url(#clip0_1_160)">
<path d="M23.6075 12.4165V1.01855H6.39249V12.4165H0L15 28.9815L30 12.4165H23.6075ZM17.1545 17.3718C16.7983 17.7625 16.3634 18.0227 15.86 18.1466V19.2163H14.3293V18.1556C13.2136 17.8726 12.3835 16.9815 12.1353 15.7777L12.0936 15.5755L13.4968 14.7263L13.6016 15.0948C13.9235 16.2272 14.3421 16.6684 15.0947 16.6684C15.4943 16.6684 15.7806 16.5507 15.9959 16.2981C16.1602 16.0971 16.2455 15.8291 16.2455 15.5059C16.2455 14.9971 15.8935 14.6576 14.8507 14.161C14.1576 13.846 13.8289 13.645 13.3901 13.267C12.9001 12.8315 12.6734 12.2999 12.6734 11.5908C12.6734 10.5097 13.3431 9.59734 14.3294 9.2937V8.2232H15.8601V9.30252C16.5263 9.49728 17.048 9.95885 17.4133 10.6777L17.5325 10.9123L16.2106 11.7687L16.0581 11.4972C15.7116 10.88 15.4078 10.7593 15.0001 10.7593C14.6134 10.7593 14.2988 11.095 14.2988 11.5079C14.2988 11.7843 14.3588 11.9915 14.6641 12.23L14.6808 12.2415C14.854 12.3605 14.991 12.4548 15.1019 12.5155L15.7378 12.8453C16.2058 13.0792 16.4512 13.2066 16.8679 13.5222C17.5329 14.0175 17.8333 14.6003 17.8705 15.4696L17.8708 15.4821C17.8708 16.2212 17.6298 16.8569 17.1545 17.3718Z" fill="#319F1C"/>
</g>
<defs>
<clipPath id="clip0_1_160">
<rect width="30" height="30" fill="white"/>
</clipPath>
</defs>
</svg>
