<svg width="56" height="47" viewBox="0 0 56 47" fill="none" xmlns="http://www.w3.org/2000/svg">
<path d="M36.3183 25.6362L43.7956 25.6362C44.6859 25.6362 45.4427 25.9476 46.0658 26.5708C46.6887 27.194 47.0005 27.9505 47.0005 28.841L47.0005 29.9087C47.0005 32.2677 46.1658 34.2815 44.4966 35.9508C42.8274 37.6194 40.8133 38.4541 38.4545 38.4541L36.3183 38.4541C35.7398 38.4541 35.2392 38.6656 34.8162 39.0883C34.3935 39.5112 34.1821 40.0117 34.1821 40.5903L34.1821 44.8634C34.1821 45.4419 34.3936 45.9429 34.8162 46.3658C35.2391 46.7881 35.7397 47 36.3183 47L38.4545 47C40.7691 47 42.9773 46.5489 45.0806 45.6481C47.1836 44.7466 49.0026 43.5281 50.5383 41.9924C52.0739 40.4574 53.2921 38.6383 54.1934 36.535C55.0947 34.432 55.5454 32.2232 55.5454 29.9088L55.5454 6.40933C55.5454 4.62809 54.9226 3.11563 53.6764 1.86894C52.43 0.622944 50.9164 -4.04681e-07 49.1362 -5.6031e-07L36.3175 -1.68096e-06C34.5374 -1.83658e-06 33.0242 0.622942 31.7778 1.86894C30.5318 3.11563 29.9086 4.62808 29.9086 6.40933L29.9086 19.2269C29.9086 21.0078 30.5318 22.5203 31.7786 23.7671C33.0245 25.013 34.5382 25.6362 36.3183 25.6362Z" fill="#319F1C"/>
<path d="M1.86786 23.7671C3.11373 25.013 4.627 25.6361 6.40754 25.6361L13.8848 25.6361C14.7745 25.6361 15.532 25.9476 16.1542 26.5708C16.7776 27.194 17.0888 27.9505 17.0888 28.841L17.0888 29.9087C17.0888 32.2677 16.2541 34.2815 14.5857 35.9508C12.9172 37.6194 10.9031 38.4541 8.54316 38.4541L6.40742 38.4541C5.8288 38.4541 5.32792 38.6656 4.90526 39.0883C4.48284 39.5112 4.27063 40.0117 4.27063 40.5903L4.27063 44.8634C4.27063 45.4419 4.48272 45.9429 4.90526 46.3658C5.3278 46.7881 5.82868 47 6.40742 47L8.54316 47C10.8591 47 13.0668 46.5489 15.1706 45.6481C17.2733 44.7466 19.0917 43.5281 20.6274 41.9924C22.1631 40.4574 23.3819 38.6383 24.2829 36.535C25.184 34.432 25.6353 32.2232 25.6353 29.9088L25.6353 6.40933C25.6353 4.62808 25.0119 3.11563 23.766 1.86894C22.52 0.622941 21.0067 -3.26566e-06 19.2263 -3.42131e-06L6.40824 -4.5419e-06C4.6277 -4.69756e-06 3.11455 0.622939 1.86868 1.86893C0.621864 3.11563 -0.000253788 4.62808 -0.000253944 6.40933L-0.000255064 19.2269C-0.000371568 21.0079 0.621865 22.5203 1.86786 23.7671Z" fill="#319F1C"/>
</svg>
