<svg width="56" height="47" viewBox="0 0 56 47" fill="none" xmlns="http://www.w3.org/2000/svg">
<path d="M19.2271 21.3638H11.7498C10.8596 21.3638 10.1027 21.0524 9.47958 20.4292C8.85676 19.806 8.54494 19.0495 8.54494 18.159V17.0913C8.54494 14.7323 9.37961 12.7185 11.0488 11.0492C12.718 9.38057 14.7321 8.54589 17.0909 8.54589H19.2271C19.8056 8.54589 20.3062 8.33438 20.7292 7.91173C21.1519 7.48883 21.3633 6.98831 21.3633 6.40968V2.13656C21.3633 1.55805 21.1518 1.05706 20.7292 0.634164C20.3063 0.211856 19.8058 0 19.2271 0H17.0909C14.7763 0 12.5681 0.45107 10.4648 1.35192C8.36184 2.25336 6.54284 3.47188 5.00712 5.0076C3.47152 6.54262 2.25336 8.36174 1.35204 10.465C0.450718 12.568 0 14.7768 0 17.0912V40.5907C0 42.3719 0.622821 43.8844 1.86905 45.1311C3.11539 46.3771 4.62901 47 6.4092 47H19.2279C21.008 47 22.5212 46.3771 23.7676 45.1311C25.0136 43.8844 25.6368 42.3719 25.6368 40.5907V27.7731C25.6368 25.9922 25.0136 24.4797 23.7668 23.2329C22.5209 21.987 21.0072 21.3638 19.2271 21.3638Z" fill="#319F1C"/>
<path d="M53.6776 23.2329C52.4317 21.987 50.9184 21.3638 49.1379 21.3638H41.6606C40.7709 21.3638 40.0134 21.0524 39.3913 20.4292C38.7678 19.806 38.4566 19.0495 38.4566 18.159V17.0913C38.4566 14.7323 39.2913 12.7185 40.9597 11.0492C42.6282 9.38057 44.6423 8.54589 47.0023 8.54589H49.138C49.7166 8.54589 50.2175 8.33438 50.6401 7.91173C51.0626 7.48883 51.2748 6.98831 51.2748 6.40968V2.13656C51.2748 1.55805 51.0627 1.05706 50.6401 0.634164C50.2176 0.211856 49.7167 0 49.138 0H47.0023C44.6863 0 42.4786 0.45107 40.3748 1.35192C38.2721 2.25336 36.4537 3.47188 34.918 5.0076C33.3823 6.54262 32.1635 8.36174 31.2625 10.465C30.3615 12.568 29.9102 14.7768 29.9102 17.0912V40.5907C29.9102 42.3719 30.5336 43.8844 31.7794 45.1311C33.0254 46.3771 34.5387 47 36.3191 47H49.1372C50.9177 47 52.4309 46.3771 53.6767 45.1311C54.9235 43.8844 55.5457 42.3719 55.5457 40.5907V27.7731C55.5458 25.9921 54.9235 24.4797 53.6776 23.2329Z" fill="#319F1C"/>
</svg>
