<svg width="28" height="23" viewBox="0 0 28 23" fill="none" xmlns="http://www.w3.org/2000/svg">
<path fill-rule="evenodd" clip-rule="evenodd" d="M5.38471 8.42692L4.16732 8.89145L3.76687 9.04362C3.35039 9.17978 2.94193 9.372 2.52545 9.52417C1.99685 9.70838 0.97168 10.0768 0.97168 10.7576C0.97168 11.2782 1.50829 11.3743 1.88472 11.4864L7.17875 13.1123C8.10781 13.3926 7.85953 13.4647 8.34809 13.1763C9.22909 12.6397 10.0861 12.0551 10.9671 11.5265L13.2657 10.0848C13.498 9.94065 13.6902 9.80449 13.9304 9.66033L22.1238 4.50245C22.34 4.3743 22.5803 4.19009 22.8446 4.20611C23.4853 4.23815 22.9968 4.73471 22.7565 4.92693C22.4281 5.19123 22.1158 5.5116 21.8034 5.78391L19.3927 7.99443L19.3767 8.01045L17.5185 9.71639C17.1581 10.0848 16.4613 10.6294 16.0849 11.0139L15.8526 11.2381L14.403 12.5516C14.0506 12.904 13.53 13.3125 13.2176 13.6329L12.9774 13.8571L12.2726 14.5058C11.76 15.0264 11.4877 14.9704 11.4957 15.5871C11.4957 15.9475 11.3195 17.6855 11.2874 18.1019C11.2154 18.9669 11.1913 19.7839 11.1032 20.6489C11.0712 20.9212 11.0392 21.1775 11.0392 21.4978C11.76 21.4738 12.3527 20.8571 12.8332 20.3846C12.9854 20.2244 13.1375 20.0562 13.3057 19.912L13.4339 19.7999L14.427 18.8308L14.443 18.8148C14.6913 18.5905 15.0357 18.1901 15.268 18.0299L16.157 18.6866C16.6776 19.1111 17.7588 19.864 18.3435 20.3045L21.3709 22.555C21.6032 22.7152 22.1398 22.9315 22.5082 22.9315C22.7645 22.9315 22.9567 22.8113 23.1089 22.6912C23.2611 22.563 23.3652 22.3788 23.4533 22.1946C23.6856 21.7301 24.2542 18.7667 24.3744 18.15C24.3984 18.0299 24.4384 17.9097 24.4544 17.8136L26.705 7.22555C26.8732 6.55278 26.9613 5.84798 27.1455 5.15119L27.2897 4.49444C27.4098 3.82167 27.8263 2.25989 27.8263 1.7393C27.8263 1.0425 27.4739 0.305664 26.705 0.305664C26.1444 0.305664 24.7668 0.962413 24.1581 1.18667L23.7496 1.33083L22.5082 1.81138L22.1078 1.96355L14.7634 4.79879L14.3629 4.95897L12.7291 5.59169C12.4568 5.71183 12.1764 5.78391 11.9121 5.89604L7.82749 7.47383L7.42704 7.63402C6.76228 7.92235 6.07349 8.16262 5.38471 8.42692Z" fill="white"/>
</svg>
