<svg width="30" height="30" viewBox="0 0 30 30" fill="none" xmlns="http://www.w3.org/2000/svg">
<path d="M22.5673 2.99729C22.0852 2.71768 21.4693 2.88312 21.1897 3.36714L20.1821 5.11062L23.6733 7.12577L24.6809 5.38229C24.9584 4.89827 24.7932 4.28425 24.3111 4.00464L22.5673 2.99729Z" fill="#319F1C"/>
<path d="M7.31299 2.99719L5.56946 4.00479C5.08735 4.28439 4.92211 4.89822 5.19941 5.38243L6.20696 7.12596L9.69824 5.11081L8.69064 3.36734C8.41103 2.88302 7.7951 2.71778 7.31299 2.99719Z" fill="#319F1C"/>
<path d="M14.9999 4.53725C15.6372 4.53725 16.2597 4.59961 16.8749 4.6875V3.05672L18.164 3.04686V0.9375C18.164 0.419314 17.7447 0 17.2265 0H12.7832C12.265 0 11.8457 0.419314 11.8457 0.9375V3.04686L13.1249 3.05672V4.6875C13.7402 4.59961 14.3627 4.53725 14.9999 4.53725Z" fill="#319F1C"/>
<path d="M15.0001 9.97559C10.6719 9.97559 7.16309 13.4842 7.16309 17.8126C7.16309 22.141 10.6717 25.6496 15.0001 25.6496C19.3285 25.6496 22.8371 22.1408 22.8371 17.8126C22.8371 13.4844 19.3283 9.97559 15.0001 9.97559ZM16.1269 19.2486C15.6734 19.6621 14.7673 19.4069 14.1031 18.6786C13.4389 17.9502 13.2678 17.0244 13.7213 16.6109C14.1748 16.1975 18.2313 13.9611 19.4714 13.7827C19.1797 15.0011 16.5805 18.8351 16.1269 19.2486Z" fill="#319F1C"/>
<path d="M15 5.625C8.26902 5.625 2.8125 11.0815 2.8125 17.8125C2.8125 24.5435 8.26902 30 15 30C21.731 30 27.1875 24.5435 27.1875 17.8125C27.1875 11.0815 21.731 5.625 15 5.625ZM15 27.7012C9.53858 27.7012 5.11127 23.2739 5.11127 17.8125C5.11127 12.3511 9.53863 7.92353 15 7.92353C20.4614 7.92353 24.889 12.3511 24.889 17.8125C24.889 23.2739 20.4614 27.7012 15 27.7012Z" fill="#319F1C"/>
</svg>
