<svg width="26" height="32" viewBox="0 0 26 32" fill="none" xmlns="http://www.w3.org/2000/svg">
<path d="M19.6026 3.59192L18.5278 5.45163L22.2518 7.60112L23.3266 5.74136C23.6226 5.22512 23.4463 4.57012 22.9321 4.27187L21.0724 3.1971C20.5578 2.89916 19.9009 3.07542 19.6026 3.59192Z" fill="#319F1C"/>
<path d="M12.9998 4.83974C13.6795 4.83974 14.3435 4.90625 14.9998 5V3.2605L16.3748 3.24999V1C16.3748 0.447268 15.9275 0 15.3748 0H10.6353C10.0825 0 9.63525 0.447268 9.63525 1V3.24999L10.9998 3.2605V5C11.656 4.90625 12.32 4.83974 12.9998 4.83974Z" fill="#319F1C"/>
<path d="M13 6C5.82029 6 0 11.8202 0 19C0 26.1798 5.82029 32 13 32C20.1797 32 26 26.1798 26 19C26 11.8202 20.1797 6 13 6ZM19.075 25.11L11.5 19.8658V12.4622H13.686V18.7205L20.3192 23.3127L19.075 25.11Z" fill="#319F1C"/>
</svg>
