<svg width="25" height="27" viewBox="0 0 25 27" fill="none" xmlns="http://www.w3.org/2000/svg">
<path fill-rule="evenodd" clip-rule="evenodd" d="M4.54562 20.9904C5.0213 21.245 6.40144 21.7809 6.46843 22.0288L6.48853 27C6.99101 26.9464 7.69448 25.8879 7.99597 25.5529C11.7478 21.3254 10.1131 22.9869 15.1312 22.4576C16.4443 22.3169 17.6502 22.1628 18.9366 21.7809C20.3837 21.3522 21.8376 20.6152 22.6147 19.5365C24.8993 16.3475 24.7854 10.8939 24.0351 7.06838C23.5795 4.73019 22.2864 3.10886 20.0889 2.1106C17.5832 0.964951 12.7528 0.542869 9.67759 0.97165C6.74982 1.38033 3.44017 2.39199 2.01313 5.17237C0.746884 7.65796 0.579391 12.4415 1.10867 15.5636C1.49725 17.8482 2.54241 19.8983 4.54562 20.9904ZM8.98082 14.974C7.40639 13.2857 5.85876 10.9408 5.0146 8.66291C4.39152 6.98129 5.24239 5.43365 7.07141 4.99147C7.73468 4.83068 8.12326 5.16567 8.49174 5.54085C8.82003 5.87583 9.15502 6.26442 9.4364 6.6597C9.71779 7.04828 10.026 7.49716 10.2404 7.91255C11.1515 9.66787 9.78479 9.60757 9.26891 10.445C8.55874 11.6041 10.4548 13.7346 11.185 14.351C11.7009 14.7797 13.1815 15.8316 13.9922 15.5703C14.4478 15.4162 14.6756 14.8467 15.0374 14.5453C16.0356 13.7078 17.1411 14.7194 17.8713 15.2152C18.2934 15.51 18.615 15.7646 19.0237 16.0862C19.4324 16.4145 19.8209 16.7897 19.7741 17.3725C19.687 18.4244 17.945 20.3673 16.3237 19.8849C15.4996 19.637 14.287 18.9939 13.5634 18.5584C11.7746 17.4998 10.3007 16.3743 8.98082 14.974ZM12.9805 7.32297C12.592 7.18898 12.6255 6.6597 12.9805 6.55921C13.4562 6.41851 14.7024 6.83389 15.0575 7.00139C16.1964 7.55746 17.1411 8.46862 17.5564 9.68797C17.6837 10.0699 18.0589 11.6644 17.5296 11.8118C17.0071 11.9525 17.0205 11.4835 16.9803 11.1083C16.8798 10.177 16.5113 9.0515 15.7944 8.42172C14.7694 7.50386 13.4361 7.48376 12.9805 7.32297ZM13.3825 9.08499C13.2083 8.9644 13.2418 8.66291 13.3624 8.52222C13.6639 8.18053 14.8766 8.38822 15.6269 9.46688C15.9954 9.98945 16.4912 11.3763 15.4393 11.2289C15.0173 10.6862 15.3723 9.97606 14.4344 9.43338C14.1128 9.24579 13.5299 9.19219 13.3825 9.08499ZM12.1833 5.35996C12.0627 5.17907 12.1699 4.87758 12.3843 4.77708C12.6322 4.64309 13.818 4.82398 14.1061 4.89098C16.4443 5.40686 18.3537 7.14208 19.218 9.38648C19.3922 9.83536 20.0085 12.2942 19.4123 12.5085C18.7222 12.7564 18.8361 11.7381 18.7691 11.2959C18.6686 10.6996 18.5681 10.2909 18.4006 9.73487C17.5832 6.96789 15.5264 6.02993 12.9471 5.56765C12.7126 5.52075 12.324 5.56765 12.1833 5.35996Z" fill="white"/>
</svg>
