<svg width="56" height="56" viewBox="0 0 56 56" fill="none" xmlns="http://www.w3.org/2000/svg">
<path d="M28 0C12.5599 0 0 12.5611 0 28C0 43.4389 12.5599 56 28 56C43.4401 56 56 43.4389 56 28C56 12.5611 43.4401 0 28 0ZM39.1312 28.981L22.7979 39.481C22.6065 39.6051 22.3855 39.6667 22.1667 39.6667C21.9753 39.6667 21.7816 39.6188 21.6085 39.5243C21.2324 39.3192 21 38.9272 21 38.5V17.5C21 17.0728 21.2324 16.6808 21.6085 16.4757C21.9776 16.2729 22.4401 16.2854 22.7979 16.519L39.1312 27.019C39.4639 27.2332 39.6667 27.6035 39.6667 28C39.6667 28.3965 39.4639 28.7667 39.1312 28.981Z" fill="white"/>
</svg>
