<svg width="25" height="26" viewBox="0 0 25 26" fill="none" xmlns="http://www.w3.org/2000/svg">
<path fill-rule="evenodd" clip-rule="evenodd" d="M12.4838 23.5785C10.6614 23.5785 8.86591 23.0895 7.29818 22.1716C7.13069 22.0778 6.93639 22.0242 6.7488 22.0242C6.64831 22.0242 6.55451 22.0376 6.46072 22.0644L3.04386 23.0024L4.23641 20.3828C4.39721 20.021 4.35701 19.6123 4.12252 19.2907C2.85627 17.5287 2.1796 15.4451 2.1796 13.2744C2.1796 7.59303 6.8024 2.97024 12.4838 2.97024C18.1651 2.97024 22.7879 7.59303 22.7879 13.2744C22.7879 18.9557 18.1651 23.5785 12.4838 23.5785ZM12.4838 0.786133C5.60315 0.786133 0.00219823 6.38709 0.00219823 13.2744C0.00219823 15.693 0.685568 18.0178 1.99201 20.0411L0.0959941 24.215C-0.0781982 24.6036 -0.0112012 25.0525 0.263487 25.3741C0.471178 25.6219 0.779364 25.7559 1.08755 25.7559C1.18805 25.7559 1.28184 25.7425 1.38234 25.7157L6.60141 24.282C8.41033 25.2468 10.4336 25.7559 12.4838 25.7559C19.371 25.7559 24.972 20.155 24.972 13.2744C24.972 6.38709 19.371 0.786133 12.4838 0.786133Z" fill="white"/>
<path fill-rule="evenodd" clip-rule="evenodd" d="M17.2877 15.1436C16.7651 14.8287 16.0817 14.4803 15.4654 14.7349C14.9964 14.9225 14.6949 15.6662 14.3867 16.0414C14.2259 16.2356 14.0383 16.2691 13.7971 16.1687C12.0284 15.4652 10.6684 14.2793 9.69023 12.6446C9.52273 12.3967 9.54953 12.1957 9.75052 11.9612C10.0453 11.6129 10.4205 11.2176 10.5009 10.7486C10.5813 10.2796 10.3602 9.73023 10.1659 9.30815C9.91802 8.77888 9.63663 8.01511 9.10735 7.71362C8.61157 7.43893 7.9684 7.59303 7.52622 7.94811C6.76915 8.56449 6.40737 9.52924 6.42077 10.4873C6.42077 10.7553 6.45427 11.0233 6.51456 11.2913C6.66866 11.921 6.96345 12.5106 7.29173 13.0667C7.53962 13.4888 7.80761 13.8975 8.0957 14.2927C9.04705 15.5858 10.2262 16.7046 11.5929 17.5421C12.2763 17.9575 13.0133 18.326 13.7703 18.5738C14.6279 18.8619 15.385 19.15 16.3095 18.9758C17.2743 18.7949 18.2256 18.1987 18.6142 17.2674C18.7281 16.9927 18.7817 16.6845 18.7147 16.3897C18.5874 15.7935 17.7701 15.4317 17.2877 15.1436Z" fill="white"/>
</svg>
