<svg width="193" height="353" viewBox="0 0 193 353" fill="none" xmlns="http://www.w3.org/2000/svg">
<path fill-rule="evenodd" clip-rule="evenodd" d="M177.959 310.555L174.846 310.135L173.098 310.201L171.226 310.541L166.401 311.128L165.061 311.314L163.582 311.37L160.5 311.756L157.143 312.018L155.266 312.224L154.325 312.26L153.384 312.296L149.484 312.444L148.543 312.479L147.467 312.52L145.445 312.462L143.16 312.549L141.003 312.496L138.707 312.314L136.416 312.266L131.555 311.912L126.55 311.294L115.975 309.406C108.777 307.794 101.285 305.52 93.7568 302.305L90.8822 301.067L88.0024 299.695L85.257 298.318L82.367 296.678L79.6166 295.166L76.856 293.386L71.3296 289.691L68.5639 287.776L65.9224 285.587L60.6445 281.344L58.1273 278.881L55.6151 276.552L53.0928 273.955L51.9661 272.651L50.8394 271.347L48.312 268.615L45.7743 265.615L44.4978 263.913L43.2214 262.211L41.9398 260.374L41.2318 259.458L40.6582 258.538L37.9504 254.601L35.3668 250.39L34.7831 249.2L34.2044 248.145L32.9024 245.77L31.74 243.525L30.5674 241.012L29.9836 239.822L29.3947 238.498L28.3515 235.844L27.7626 234.52L27.1737 233.196L26.2598 230.403L22.7182 218.688C20.7934 210.547 19.3861 201.848 18.7651 192.58L18.5694 190.972L18.5031 189.224L18.3704 185.728L18.2326 182.097L18.3689 178.591L18.3656 174.956L18.335 174.149L18.4337 173.203L18.4967 171.315L18.7623 167.669L18.8305 165.916L19.0279 164.024L19.428 160.373L19.6306 158.615L19.7293 157.668L19.8281 156.722L20.8971 149.41L22.3696 142.083L22.4683 141.137L22.7015 140.185L23.173 138.417L24.111 134.746C26.7017 124.952 29.9698 115.268 34.1945 105.951C38.2847 96.6392 43.197 87.7003 48.6726 79.4133L53.0146 73.1891L57.5064 67.3632L59.8196 64.4477L62.2722 61.6616L67.0483 56.2288L69.5061 53.5771L72.1085 51.1893L77.3083 46.279L79.7763 43.8963L81.0801 42.7696L81.732 42.2062L82.3839 41.6429L87.7437 37.3999C94.8055 31.8804 102.027 27.0281 109.011 22.9928L110.33 22.2694L111.649 21.5461L114.287 20.0995L116.925 18.6528L119.434 17.3457L124.462 15.0005L129.361 12.7948L131.745 11.7617L132.407 11.4673L132.94 11.3124L134.135 10.8631L138.645 9.07609L139.84 8.62679L140.373 8.47192L140.905 8.31705L143.031 7.5631L147.154 6.19478L161.155 2.56643L170.242 0.740397L173.453 0.214555L170.237 0.605937L161.129 1.89413L146.839 4.99485L142.572 6.09935L140.441 6.71883L139.779 7.01327L139.246 7.16814L138.181 7.47788L133.525 9.00107L132.196 9.45547L131.663 9.61034L131.001 9.90478L128.612 10.8034L123.434 12.7504L118.401 14.9612L115.618 16.144L112.975 17.4562L110.332 18.7684L108.878 19.4968L107.554 20.0857C100.162 24.0018 92.6611 28.5954 85.0512 33.8664L79.5518 37.98L78.7655 38.5485L78.1136 39.1118L76.6753 40.2437L73.9333 42.5022L68.4595 47.2881L65.7226 49.6811L62.9959 52.343L57.8113 57.6566L55.2242 60.4478L52.6421 63.3735L47.747 69.2148L43.136 75.4492C36.9932 83.8961 31.4137 92.995 26.7908 102.462C22.0385 112.068 18.1082 122.047 14.9899 132.129L13.9226 135.94L13.3217 137.848L13.0885 138.799L12.8604 139.885L10.9948 147.497L9.53769 155.227L9.43894 156.174L9.20574 157.125L9.01336 159.152L8.48393 162.943L8.15199 164.84L7.95961 166.867L7.6991 170.648L7.50161 172.54L7.40287 173.487L7.30413 174.433L7.18318 178.342L6.92268 182.123L6.93109 185.893L6.9344 189.528L7.00583 191.411L7.07727 193.293C7.44976 203.109 8.6188 212.625 10.5742 221.572L14.0273 234.503L14.9514 237.565L15.5505 239.158L16.1444 240.616L17.1979 243.539L17.7919 244.997L18.5203 246.451L19.698 249.099L21.0153 251.877L22.3275 254.52L23.0508 255.839L23.6346 257.029L26.373 261.773L29.2357 266.242L29.9489 267.293L30.662 268.343L32.0831 270.309L33.5043 272.274L34.9203 274.106L37.7473 277.634L40.4194 280.63L41.6907 282.197L43.0864 283.491L45.8878 286.347L48.6842 289.069L51.6099 291.651L57.4511 296.546L60.496 298.719L63.6753 300.888L69.7497 304.832L72.9188 306.731L76.0829 308.496L79.3711 309.987L82.5249 311.484L85.8081 312.84L88.9568 314.202C97.5605 317.376 105.989 319.48 113.978 320.658L125.468 321.838L130.997 322.032L136.246 321.968L138.666 321.876L141.221 321.779L143.636 321.553L145.911 321.197L148.192 320.976L149.263 320.8L150.333 320.625L154.481 319.929L155.417 319.759L156.353 319.589L158.221 319.114L161.691 318.309L164.882 317.245L166.351 316.92L167.675 316.331L172.455 314.534L174.167 313.527L175.621 312.798L177.959 310.555Z" fill="#898989"/>
<path fill-rule="evenodd" clip-rule="evenodd" d="M190.771 307.511L173.204 327.163L155.502 346.821L165.681 313.445L141.693 288.098L166.299 297.802L190.771 307.511Z" fill="#898989"/>
</svg>
