<svg width="312" height="85" viewBox="0 0 312 85" fill="none" xmlns="http://www.w3.org/2000/svg">
<path fill-rule="evenodd" clip-rule="evenodd" d="M291.753 18.2757L287.417 23.9829L284.639 26.2608L281.094 28.9987L280.24 29.7086L279.154 30.4494L276.982 31.931L274.693 33.4281L273.491 34.1843L272.288 34.9406L266.896 38.0427L260.922 41.222L259.37 42.0245L257.686 42.7252L254.335 44.2439L252.651 44.9446L250.866 45.778L247.266 47.2102C237.467 51.0162 226.41 54.2727 214.367 56.3471L213.902 56.4088L213.32 56.486L212.039 56.6558L209.611 57.0972L204.024 57.8381L197.824 58.4216L191.127 58.8322C181.707 59.246 170.882 58.8912 159.567 57.5271C148.152 56.2958 136.279 54.2897 124.321 52.5336C118.283 51.6633 112.261 50.9103 106.255 50.2745L101.723 50.04L97.2924 49.6728L92.7761 49.5556L90.6344 49.4816L88.3762 49.423C82.4632 49.491 76.5814 49.7935 70.9634 50.2998L66.7577 50.7382L62.5675 51.2939L60.5888 51.5563L58.6102 51.8187L54.5675 52.5935C44.1543 54.4518 34.7967 57.1249 26.9834 59.832L25.5169 60.3845L24.1513 60.8043L21.4512 61.8785L18.9683 62.8046L16.501 63.8479L14.3673 64.7276L13.25 65.2338L12.2336 65.6073L8.78094 67.2587L5.87915 68.5983L3.89295 69.6972L2.10843 70.5306L3.761 69.5953L5.73165 68.3792L8.48594 66.8204L11.9075 64.9344L12.9084 64.4436L13.8937 63.8356L16.1282 62.8231L18.3316 61.5761L20.9154 60.5173L23.468 59.224L24.9344 58.6715L26.2689 58.0171C34.0045 54.7236 43.2688 51.3467 53.8214 48.7538L57.7166 47.7598L59.7961 47.3647L61.8601 46.8523L66.0191 46.062L70.3101 45.3736C76.1142 44.4846 82.0503 43.6974 88.1649 43.364L90.392 43.188L92.7509 43.1139L97.3525 42.9811L101.985 43.0828L106.719 43.0519C112.911 43.3049 119.135 43.7925 125.242 44.2955C137.456 45.3015 149.368 46.7057 160.34 47.2796C171.461 48.0727 181.494 47.8163 190.402 47.1124L196.734 46.6308L202.554 45.8591L207.776 45.0472L210.104 44.7385L211.267 44.5841L211.834 44.3897L212.299 44.3279C223.527 42.3616 234.181 39.6359 243.608 36.5955L247.007 35.4287L248.822 34.8298L250.405 34.2619L253.687 33.1105L255.386 32.5271L256.969 31.9592L262.92 29.499L268.421 27.218L269.655 26.6963L270.889 26.1746L273.356 25.1313L275.591 24.1189L276.708 23.6127L277.709 23.1219L281.627 21.4087L284.862 19.9055L291.753 18.2757Z" fill="#898989"/>
<path fill-rule="evenodd" clip-rule="evenodd" d="M306.902 10.8073L283.932 8.29558L260.86 5.91565L287.125 21.5893L286.152 51.9906L296.535 31.457L306.902 10.8073Z" fill="#898989"/>
</svg>
