<svg width="305" height="80" viewBox="0 0 305 80" fill="none" xmlns="http://www.w3.org/2000/svg">
<path fill-rule="evenodd" clip-rule="evenodd" d="M297.622 58.4574L289.79 54.3711L281.731 48.8091L270.72 42.3391L264.137 39.3878L263.229 39.1608L262.888 38.9338L262.434 38.8203L260.618 38.2527L260.164 38.0257L259.71 37.9122L258.802 37.6852L257.78 37.5717L257.326 37.4581L256.872 37.3446L254.942 36.8906L253.921 36.7771L253.013 36.6636L248.926 36.3231L240.413 36.7771C234.624 37.6852 228.608 39.5013 222.706 42.3391C216.803 45.0633 211.014 48.8091 205.566 53.236L197.62 60.0465L187.291 68.6733L180.821 73.1001L172.989 76.7325L164.021 79.1161H154.032L152.784 78.7756L151.535 78.5486L150.173 78.0946L149.492 77.9811L148.925 77.754L144.157 75.4838L139.844 72.6461L135.984 69.3543L132.579 65.722L129.401 62.0897L123.158 54.8251L110.672 40.0689L104.315 32.5772L97.8452 25.1991L83.77 12.5996L75.8244 8.05918L71.6245 6.47004L69.4678 5.9025L68.4463 5.67548L67.8787 5.56197L67.3112 5.44846L62.9978 5.10793H60.8411H59.706L58.5709 5.22144L57.5493 5.33495L56.4142 5.56197L55.3927 5.67548L54.8251 5.78899L54.2576 5.9025L53.236 6.24302L52.2144 6.47004L50.1712 7.1511C44.6092 8.96725 39.5013 11.805 34.8474 14.8698L22.2479 24.8586L12.486 35.5285L5.44846 45.8579L0.681057 54.9386L0 54.5981L6.92408 47.1065L9.19427 45.5173L9.98884 45.0633L9.19427 45.5173L7.03759 47.22L3.97283 50.2847L0.681057 55.0521L0 54.7116L4.31336 45.2903L11.0104 34.2799L20.4317 22.9289L32.8043 11.9185L40.2959 7.03759L48.5821 2.95125L50.8523 2.15668L51.9874 1.81615L53.1225 1.47562L53.8035 1.36211L54.2576 1.1351L55.5062 0.908076L56.7548 0.681057L57.8899 0.454038L59.252 0.227019L60.5006 0.11351L62.9978 0L67.9922 0.227019H68.6733L69.3543 0.340529L70.6029 0.567548L73.1001 1.1351L77.981 2.72423L87.2888 7.37812C93.0778 11.0104 98.1857 15.5508 103.067 20.2047L110.104 27.4693L116.688 34.6204L129.855 49.0361L136.325 55.9602L139.39 59.252L142.568 62.2032L145.746 64.7004L149.038 66.7436L152.33 68.1057L152.67 68.2192L153.011 68.3327L153.919 68.5598L154.714 68.6733L155.508 68.9003L169.016 66.6301L175.032 63.5653L177.756 61.6357L180.367 59.706L189.901 51.4198L198.188 44.1552C204.317 39.1608 211.014 34.9609 217.938 31.8962C224.862 28.8314 232.013 26.7883 239.165 26.1072H249.607L254.488 26.7883L255.737 27.0153L256.872 27.2423L259.256 27.9233L259.823 28.0369L260.391 28.2639L261.526 28.6044L262.548 28.9449L263.115 29.172L263.569 29.399L265.726 30.1935L266.293 30.4206L266.747 30.6476L267.655 31.1016L274.92 35.188L285.703 43.7012L292.855 50.9658L297.622 58.4574Z" fill="#898989"/>
<path fill-rule="evenodd" clip-rule="evenodd" d="M305 68.7866L303.297 46.5388L301.595 24.4044L291.265 51.9872L262.207 56.6411L283.547 62.6571L305 68.7866Z" fill="#898989"/>
</svg>
