<svg width="329" height="91" viewBox="0 0 329 91" fill="none" xmlns="http://www.w3.org/2000/svg">
<path fill-rule="evenodd" clip-rule="evenodd" d="M20.4579 58.4479L21.149 56.2627L22.8758 54.5314L23.9526 53.6494L25.2934 52.4807L28.686 50.089L30.5957 48.8768L32.7795 47.5103L43.3938 42.3007L57.1971 37.6468L65.2108 35.8346L73.7017 34.6521C85.6153 33.3413 98.9505 33.7874 112.488 36.8835L123.903 40.2752L137.045 45.6672L151.587 52.5513L167.146 59.6242L184.004 64.9985L201.93 65.6267L219.359 59.7626L235.896 49.7022L252.107 39.1335L260.487 34.6279L269.08 31.0388L271.172 30.3457L273.407 29.6417L275.519 29.2136L276.647 28.9941L277.774 28.7747L278.901 28.5552L279.887 28.3466L282.019 28.1834L283.147 27.964L284.152 28.0203L286.285 27.8572L287.291 27.9136L288.286 27.8375L290.297 27.9502L292.166 28.0739L294.187 28.3191L296.066 28.5753L296.939 28.775L297.802 28.8423L299.691 29.2309L300.423 29.4415L301.296 29.6412L302.911 30.1841L303.784 30.3839L304.515 30.5945L306.13 31.1373L307.603 31.6911L310.406 32.8094L312.934 34.082L314.133 34.79L315.179 35.3764L316.225 35.9627L317.281 36.6816L319.088 37.876L320.754 39.0814L323.211 41.2923L324.277 42.1437L325.049 42.8843L326.45 44.3763L324.917 43.0276L324.003 42.2979L323.089 41.5682L320.358 39.5115L318.702 38.4386L316.763 37.3875L315.717 36.8012L314.539 36.3582L313.493 35.7718L312.304 35.1963L309.796 34.1887L307.003 33.2029L305.541 32.7816L303.946 32.5038L303.215 32.2932L302.342 32.0934L300.737 31.683L299.874 31.6158L299.142 31.4052L297.416 31.2707L296.553 31.2034L295.679 31.0037L293.81 30.88L291.952 30.8889L290.235 30.8869L288.235 30.9066L287.381 30.9719L286.386 31.048L284.406 31.3327L283.552 31.398L282.567 31.6066L280.587 31.8913L279.602 32.0999L278.616 32.3085L277.641 32.6496L276.656 32.8582L274.706 33.5405L272.756 34.2227L270.816 35.0374L263.096 38.8262L255.468 43.8075L240.313 55.095L223.756 66.7562L214.249 71.4814L203.624 74.6927L192.706 75.9275L181.93 75.2856C174.852 74.361 168.413 72.4545 162.391 70.3829L145.573 63.6728L131.091 57.5837L118.721 52.9323L108.789 50.2269C96.998 47.5303 85.3489 46.6886 74.8065 47.2283L66.986 47.8264L59.7647 48.7784L46.8047 51.3688L36.1705 54.4476L33.936 55.1516L31.8436 55.8447L28.2176 57.0548L26.5417 57.5828L25.1502 58.089L22.9056 58.6605L20.4579 58.4479Z" fill="#898989"/>
<path fill-rule="evenodd" clip-rule="evenodd" d="M3.38688 68.9917L31.4221 71.184L59.4672 73.5069L27.4121 56.5108L28.2798 22.5426L15.9001 45.6963L3.38688 68.9917Z" fill="#898989"/>
</svg>
