<svg width="272" height="353" viewBox="0 0 272 353" fill="none" xmlns="http://www.w3.org/2000/svg">
<path fill-rule="evenodd" clip-rule="evenodd" d="M26.076 281.167L28.1626 282.815L34.5602 284.64C40.1429 285.631 48.328 286.462 58.5788 286.378C68.8693 286.155 80.9472 284.939 94.276 281.973L114.755 276.084L135.849 267.513L147.846 261.31L162.245 252.484C172.255 245.864 183.277 237.278 194 227.102C199.401 221.875 204.604 216.29 209.747 210.388C214.79 204.307 219.635 197.868 224.102 191.172C228.43 184.435 232.519 177.481 235.993 170.049C239.566 162.797 242.483 155.207 244.665 147.558L247.501 136.034L248.532 130.312L248.868 127.551L249.245 124.65C249.917 117.022 249.914 109.651 249.374 102.579C248.077 88.6736 244.278 76.1597 239.685 66.4273L232.488 53.6962L225.651 44.9779L220.94 39.8743L219.171 38.1666L220.762 39.9737L225.253 45.3158C228.851 50.102 233.662 57.4901 237.48 67.3023C241.437 77.1542 244.263 89.3904 244.627 102.879C244.788 109.693 244.275 116.766 243.165 123.818L242.69 126.54L242.075 129.222L240.845 134.587L237.512 145.216C235.032 152.329 231.817 159.383 228.124 166C224.531 172.796 220.283 179.254 215.696 185.315C211.209 191.555 206.245 197.357 201.122 202.664C196.098 208.149 190.776 213.098 185.533 217.768C174.949 226.931 164.204 234.544 154.532 240.508L140.868 248.341L129.487 253.967C116.259 260.27 103.149 265.103 90.8536 268.664C78.5581 272.225 67.2553 274.415 57.6606 275.889C48.066 277.363 40.1796 278.122 34.7167 278.819L28.3998 279.875L26.076 281.167Z" fill="#898989"/>
<path fill-rule="evenodd" clip-rule="evenodd" d="M5.39581 280.38L29.1092 264.736L52.6836 249.052L33.0296 281.044L51.1807 313.895L28.2883 297.137L5.39581 280.38Z" fill="#898989"/>
</svg>
